<?xml version="1.0" encoding="UTF-8"?>
<svg id="_レイヤー_2" data-name="レイヤー 2" xmlns="http://www.w3.org/2000/svg" viewBox="0 0 76.52 28.64">
  <defs>
    <style>
      .cls-1 {
        fill: gray;
      }

      .cls-1, .cls-2, .cls-3, .cls-4, .cls-5 {
        stroke: #000;
        stroke-linecap: round;
        stroke-linejoin: round;
        stroke-width: 1.02px;
      }

      .cls-2 {
        fill: #666;
      }

      .cls-3 {
        fill: #fff;
      }

      .cls-4 {
        fill: #e7c27d;
      }

      .cls-5 {
        fill: none;
      }
    </style>
  </defs>
  <g id="_アートボード1" data-name="アートボード1">
    <g>
      <path class="cls-1" d="m53.81,13.53c-.06.48-.25.95-.57,1.38,0,0-.12.12-.31.3,0,0-.02.01-.02.02-.32.3-.81.75-1.24,1.04-.07.05-.14.09-.2.13-4,2.3-12.62,3.24-22.4,2.12-9.77-1.12-17.96-3.99-21.33-7.14-.76-.7-1.27-1.42-1.51-2.13-.13-.4-.18-.79-.13-1.18.49-4.26,11.56-6.49,24.74-4.98,11.19,1.28,20.29,4.85,22.48,8.51.39.65.57,1.3.49,1.94Z"/>
      <path class="cls-1" d="m51.46,16.4c-4,2.3-12.62,3.24-22.4,2.12-9.77-1.12-17.96-3.99-21.33-7.14.65-.75,1.74-1.41,3.15-1.94h0c3.17-1.2,8.03-1.8,13.65-1.63h0c1.83.06,3.75.19,5.7.42,2.73.31,5.32.77,7.7,1.33,4.09.97,7.55,2.25,10,3.68h0c1.73,1,2.94,2.08,3.52,3.15Z"/>
      <line class="cls-5" x1="7.01" y1="13.38" x2="7" y2="13.32"/>
      <path class="cls-2" d="m53.42,14.93l-.05.1-.87,1.85-.85,1.82c-1.46,3.57-11.38,5.36-23.07,4.03-11.94-1.37-21.36-5.51-21.58-9.4l-.77-4.08c.24.72.75,1.44,1.51,2.13,3.38,3.15,11.56,6.01,21.33,7.14,9.78,1.12,18.4.18,22.4-2.12.07-.04.13-.08.2-.13.42-.29.89-.74,1.24-1.04,0,0,.01-.01.02-.02.23-.19.41-.31.49-.28Z"/>
      <path class="cls-2" d="m76.01,13.88c-9.57-1.1-21.06.87-22.63,1.15l.05-.1c-.08-.03-.26.09-.49.28.19-.18.31-.3.31-.3.32-.43.51-.89.57-1.38.08-.64-.1-1.29-.49-1.94,0,0,10.9-2.27,22.28-1.2l.41,3.49Z"/>
      <path class="cls-5" d="m53.37,15.03c-.12.02-.18.03-.18.03"/>
      <path class="cls-2" d="m76.01,13.88l-1.62,1.82c-10.29-1.18-21.88,1.18-21.88,1.18l.87-1.85c1.57-.28,13.07-2.25,22.63-1.15Z"/>
      <path class="cls-3" d="m24.97,7.35s-14.14-.67-14.57,3.07,8.01,4.57,10.88,4.26,4.8-.57,8.91.85,6.33,2.62,8.67,2.89c2.81.32,8.47-1.4,9.16-4.4s-10.84-5.74-10.84-5.74"/>
      <ellipse class="cls-4" cx="31.18" cy="8.98" rx="2.86" ry="6.8" transform="translate(18.71 38.93) rotate(-83.46)"/>
      <path class="cls-5" d="m2.03,5.92C2.03,3.89,4.57,1.61,7.11,1.61"/>
      <path class="cls-5" d="m.51,3.64C1.02,2.11,2.79.84,4.19.51"/>
      <path class="cls-5" d="m53.01,23.22c-.38,1.99-3.3,3.76-5.8,3.29"/>
      <path class="cls-5" d="m54.08,25.75c-.78,1.4-2.77,2.31-4.2,2.38"/>
    </g>
  </g>
</svg>